<?xml version="1.0" encoding="UTF-8" standalone="no"?>
<svg
   xmlns:dc="http://purl.org/dc/elements/1.1/"
   xmlns:cc="http://creativecommons.org/ns#"
   xmlns:rdf="http://www.w3.org/1999/02/22-rdf-syntax-ns#"
   xmlns:svg="http://www.w3.org/2000/svg"
   xmlns="http://www.w3.org/2000/svg"
   xmlns:sodipodi="http://sodipodi.sourceforge.net/DTD/sodipodi-0.dtd"
   xmlns:inkscape="http://www.inkscape.org/namespaces/inkscape"
   height="680"
   width="879.587"
   version="1.1"
   id="svg38"
   sodipodi:docname="airplane-trail--publicdomainvectors.org.svg"
   inkscape:version="1.0.1 (3bc2e813f5, 2020-09-07)">
  <metadata
     id="metadata44">
    <rdf:RDF>
      <cc:Work
         rdf:about="">
        <dc:format>image/svg+xml</dc:format>
        <dc:type
           rdf:resource="http://purl.org/dc/dcmitype/StillImage" />
        <dc:title></dc:title>
      </cc:Work>
    </rdf:RDF>
  </metadata>
  <defs
     id="defs42" />
  <sodipodi:namedview
     pagecolor="#ffffff"
     bordercolor="#666666"
     borderopacity="1"
     objecttolerance="10"
     gridtolerance="10"
     guidetolerance="10"
     inkscape:pageopacity="0"
     inkscape:pageshadow="2"
     inkscape:window-width="3440"
     inkscape:window-height="1377"
     id="namedview40"
     showgrid="false"
     showguides="true"
     inkscape:guide-bbox="true"
     inkscape:lockguides="false"
     inkscape:zoom="1.1459755"
     inkscape:cx="973.02708"
     inkscape:cy="439.79999"
     inkscape:window-x="-8"
     inkscape:window-y="-8"
     inkscape:window-maximized="1"
     inkscape:current-layer="svg38" />
  <path
     d="M -379.58928,689.36905 H 1710.3263 V 0.0050029 H -379.58928 V 689.36905"
     fill="#85d3bb"
     fill-rule="evenodd"
     id="path2"
     style="stroke-width:1.3646" />
  <path
     d="m 879.593,331.33705 v 221.419 c -30.488,-3.806 -57.153,-19.907 -74.88,-43.188 -14.604,18.684 -37.35,30.697 -62.901,30.697 -18.999,0 -36.445,-6.644 -50.147,-17.73 -1.713,28.24 -25.152,50.611 -53.821,50.611 -19.51,0 -36.596,-10.357 -46.067,-25.877 -15.152,14.31 -35.588,23.084 -58.076,23.084 -20.914,0 -40.054,-7.593 -54.818,-20.167 -10.602,11.271 -25.65,18.311 -42.344,18.311 -20.963,0 -39.336,-11.101 -49.554,-27.748 -17.378,17.154 -41.25,27.748 -67.601,27.748 -32.017,0 -60.377,-15.639 -77.872,-39.692 -8.33,27.678 -34.008,47.841 -64.399,47.841 -16.805,0 -32.17,-6.167 -43.96,-16.357 -10.856,5.83 -23.268,9.141 -36.455,9.141 -27.38,0 -51.43,-14.262 -65.128,-35.758 -8.445,8.336 -19.37,14.165 -31.57,16.281 v -192.284 c 11.403,-7.216 24.916,-11.392 39.408,-11.392 39.677,0 72.037,31.308 73.736,70.564 18,3.91 33.657,14.1 44.565,28.156 a 67.167,67.167 0 0 1 19.404,-2.845 c 18.139,0 34.599,7.181 46.695,18.854 5.577,-47.842 46.235,-84.977 95.576,-84.977 2.137,0 4.255,0.073 6.359,0.21 11.906,-39.913 48.888,-69.013 92.669,-69.013 53.157,0 96.295,42.895 96.69,95.962 a 85.043,85.043 0 0 1 18.6,-2.055 c 41.195,0 75.51,29.444 83.058,68.433 a 53.766,53.766 0 0 1 21.084,-4.276 53.76,53.76 0 0 1 24.923,6.095 80.067,80.067 0 0 1 -0.748,-10.913 c 0,-44.07 35.724,-79.794 79.793,-79.794 18.61,0 35.733,6.374 49.304,17.052 15.383,-35.497 48.672,-61.429 88.477,-66.393"
     fill="#fff"
     fill-rule="evenodd"
     id="path4" />
  <path
     d="m 0,490.39005 808.93,57.651 -442.587,111.574 L 0,553.61905 v -63.228"
     fill="#f9de1c"
     fill-rule="evenodd"
     id="path6" />
  <path
     d="m 219.433,579.65405 660.16,-92.981 v 167.365 z"
     fill="#fab40a"
     fill-rule="evenodd"
     id="path8" />
  <path
     d="M 879.593,618.70505 0,510.84805 v 178.521 h 879.593 v -70.664"
     fill="#9ac421"
     fill-rule="evenodd"
     id="path10" />
  <path
     d="M 879.593,514.56805 0,689.36905 h 879.593 z"
     fill="#769a2a"
     fill-rule="evenodd"
     id="path12" />
  <path
     d="m 286.19395,101.07481 -58.961,-13.204997 -38.587,11.157 17.2,-0.93 30.683,17.668997 46.026,-9.299 3.639,-5.392"
     fill="#dcf3f1"
     fill-rule="evenodd"
     id="path14" />
  <path
     d="m 236.52895,115.76581 250.704,-74.162997 c 24.358,-7.207 46.536,-8.876 71.697,-5.395 10.115,1.398 20.145,2.366 30.67,2.971 6.52,0.375 11.782,4.984 13.009,11.401 1.225,6.416 -1.966,12.643 -7.886,15.395 -18.069,8.403 -36.229,14.357 -56.965,18.82 l -174.696,37.592997 c -33.381,7.182 -63.281,7.147 -96.645,-0.116 l -29.888,-6.506"
     fill="#c4ebe2"
     fill-rule="evenodd"
     id="path16" />
  <path
     d="m 490.01595,95.068813 -209.67,-14.991 -22.141,8.546 124.329,29.571997 107.483,-23.127997"
     fill="#b2e5d8"
     fill-rule="evenodd"
     id="path18" />
  <path
     d="m 490.01595,95.068813 100.887,4.534 -22.142,8.546997 -186.227,10.046 107.483,-23.127997"
     fill="#b2e5d8"
     fill-rule="evenodd"
     id="path20" />
  <path
     d="m 590.90295,99.602813 -86.506,-7.63 -24.967,5.375 z"
     fill="#b2e5d8"
     fill-rule="evenodd"
     id="path22" />
  <path
     d="m 488.50495,97.530813 -20.452,-11.056 -187.707,-6.397 z"
     fill="#b2e5d8"
     fill-rule="evenodd"
     id="path24" />
  <path
     d="m 322.98595,104.06381 40.355,-14.636997 c 10.85,-3.936 16.916,15.529997 5.373,17.995997 l -39.777,8.503 c -6.95,1.485 -12.555,-9.468 -5.951,-11.862 m 158.845,7.312 35.07,-12.720997 c 9.432,-3.42 14.704,13.496997 4.666,15.642997 l -34.564,7.388 c -6.042,1.289 -10.912,-8.227 -5.172,-10.31"
     fill="#9adcc7"
     fill-rule="evenodd"
     id="path26" />
  <path
     d="m 318.47595,112.97381 -366.469996,74.289 v 40.912 z m 156.207,4.649 -522.676996,136.45 v 40.911 z m 68.108,141.019 c 7.16,-1.823 13.596,-0.348 18.022,3.472 6.361,-17.256 21.706,-32.188 39.628,-36.754 13.557,-3.453 25.642,-0.221 33.478,7.624 6.628,-8.057 15.634,-14.264 25.551,-16.79 11.287,-2.875 21.387,-0.382 28.155,5.874 a 28.335,28.335 0 0 1 3.937,-1.322 c 13.35,-3.402 24.175,4.664 24.175,18.016 0,13.35 -10.824,26.929 -24.175,30.332 a 25.213,25.213 0 0 1 -3.937,0.681 c -6.768,9.704 -16.868,17.344 -28.155,20.22 -9.917,2.525 -18.923,0.905 -25.55,-3.773 -7.837,11.838 -19.922,21.225 -33.48,24.681 -17.92,4.564 -33.266,-2.548 -39.627,-16.564 -4.426,6.075 -10.862,10.828 -18.022,12.652 -13.348,3.4 -24.172,-4.664 -24.172,-18.017 0,-13.351 10.824,-26.931 24.172,-30.332"
     fill="#ffffff"
     fill-rule="evenodd"
     id="path28" />
</svg>
